<svg width="30" height="22" viewBox="0 0 30 22" fill="none" xmlns="http://www.w3.org/2000/svg">
<path d="M24.5266 15.7282C23.7935 15.7282 23.0971 16.0153 22.5718 16.5345C22.0464 17.0599 21.7532 17.744 21.7532 18.4771C21.7532 19.2101 22.0403 19.8943 22.5718 20.4197C23.1032 20.9389 23.7935 21.226 24.5266 21.226C26.0293 21.226 27.2511 19.9921 27.2511 18.4771C27.2511 16.9621 26.0293 15.7282 24.5266 15.7282ZM24.5266 20.0043C23.6836 20.0043 22.975 19.3079 22.975 18.4771C22.975 17.6463 23.6836 16.9499 24.5266 16.9499C25.3574 16.9499 26.0293 17.6341 26.0293 18.4771C26.0293 19.3201 25.3574 20.0043 24.5266 20.0043ZM25.2352 6.57116C25.1252 6.46731 24.9786 6.41233 24.8259 6.41233H21.6921C21.3561 6.41233 21.0812 6.68723 21.0812 7.02321V12.0324C21.0812 12.3684 21.3561 12.6432 21.6921 12.6432H26.6646C27.0006 12.6432 27.2755 12.3684 27.2755 12.0324V8.67867C27.2755 8.50763 27.2022 8.34269 27.0739 8.22663L25.2352 6.57116ZM26.0538 11.4215H22.303V7.62797H24.5877L26.0538 8.94746V11.4215ZM9.60904 15.7282C8.87599 15.7282 8.1796 16.0153 7.65425 16.5345C7.12889 17.0599 6.83568 17.744 6.83568 18.4771C6.83568 19.2101 7.12279 19.8943 7.65425 20.4197C8.18571 20.9389 8.87599 21.226 9.60904 21.226C11.1118 21.226 12.3335 19.9921 12.3335 18.4771C12.3335 16.9621 11.1118 15.7282 9.60904 15.7282ZM9.60904 20.0043C8.76604 20.0043 8.05742 19.3079 8.05742 18.4771C8.05742 17.6463 8.76604 16.9499 9.60904 16.9499C10.4398 16.9499 11.1118 17.6341 11.1118 18.4771C11.1118 19.3201 10.4398 20.0043 9.60904 20.0043ZM5.53451 16.4795H4.30666V14.8546C4.30666 14.5186 4.03177 14.2437 3.69579 14.2437C3.3598 14.2437 3.08491 14.5186 3.08491 14.8546V17.0904C3.08491 17.4264 3.3598 17.7013 3.69579 17.7013H5.53451C5.87049 17.7013 6.14539 17.4264 6.14539 17.0904C6.14539 16.7544 5.87049 16.4795 5.53451 16.4795ZM8.63164 13.1503C8.63164 12.8143 8.35675 12.5394 8.02077 12.5394H0.610874C0.274893 12.5394 0 12.8143 0 13.1503C0 13.4862 0.274893 13.7611 0.610874 13.7611H8.02077C8.35675 13.7611 8.63164 13.4924 8.63164 13.1503ZM1.85095 10.945L9.26084 10.9878C9.59682 10.9878 9.87172 10.719 9.87782 10.383C9.88393 10.0409 9.60904 9.76603 9.27306 9.76603L1.86316 9.72327C1.85706 9.72327 1.85706 9.72327 1.85706 9.72327C1.52108 9.72327 1.24618 9.99205 1.24618 10.328C1.24007 10.6701 1.51497 10.945 1.85095 10.945ZM3.09713 8.17165H10.507C10.843 8.17165 11.1179 7.89676 11.1179 7.56078C11.1179 7.22479 10.843 6.9499 10.507 6.9499H3.09713C2.76115 6.9499 2.48626 7.22479 2.48626 7.56078C2.48626 7.89676 2.76115 8.17165 3.09713 8.17165ZM29.774 7.34697L25.4001 3.72449C25.2902 3.63286 25.1558 3.58399 25.0092 3.58399H19.8656V1.38485C19.8656 1.04886 19.5907 0.773972 19.2547 0.773972H3.69579C3.3598 0.773972 3.08491 1.04886 3.08491 1.38485V5.85644C3.08491 6.19242 3.3598 6.46731 3.69579 6.46731C4.03177 6.46731 4.30666 6.19242 4.30666 5.85644V1.99572H18.65V16.4795H13.6408C13.3048 16.4795 13.0299 16.7544 13.0299 17.0904C13.0299 17.4264 13.3048 17.7013 13.6408 17.7013H21.0996C21.4356 17.7013 21.7104 17.4264 21.7104 17.0904C21.7104 16.7544 21.4356 16.4795 21.0996 16.4795H19.8717V4.80574H24.7954L28.7783 8.10445L28.7355 16.4673H28.1002C27.7642 16.4673 27.4893 16.7422 27.4893 17.0782C27.4893 17.4142 27.7642 17.6891 28.1002 17.6891H29.3403C29.6762 17.6891 29.9511 17.4203 29.9511 17.0843L30 7.82345C29.9939 7.64019 29.9145 7.46304 29.774 7.34697Z" fill="black"/>
</svg>
